<svg width="400" height="401" viewBox="0 0 400 401" fill="none" xmlns="http://www.w3.org/2000/svg">
<path d="M112.851 141.501C126.918 128.111 144.456 118.104 167.792 113.252C174.584 111.84 183.201 112.656 190.283 111.504C200.857 109.783 213.96 110.988 224.57 109.26C239.094 106.895 253 104.194 273.709 109.662C281.456 111.708 289.389 113.851 298.126 118.309C306.489 122.576 314.293 126.989 322.69 132.181C335.437 140.065 349.482 149.154 359.42 160.28C364.428 165.887 368.774 171.108 371.938 176.578C374.35 180.746 377.815 185.388 379.954 189.44C382.569 194.394 382.913 199.639 383.294 203.552C383.877 209.555 382.619 214.455 380.889 219.003C376.539 230.441 374.111 243.785 367.797 253.798C361.202 264.257 349.646 271.257 339.678 278.945C330.851 285.754 319.242 289.881 309.64 295.991C301.222 301.348 291.247 306.821 275.176 303.834C261.48 301.289 246.778 296.958 231.666 291.792C223.794 289.1 215.784 286.166 207.808 283.252C193.128 277.891 177.553 270.259 162.96 265.058C150.126 260.484 138.442 257.311 124.882 250.888C121.428 249.251 117.593 247.315 114.24 244.498C108.32 239.525 107.94 235.243 106.584 231.024C105.201 226.711 104.675 223.191 103.942 219.167C103.037 214.191 100.736 208.518 100.689 203.984C100.604 195.846 98.459 186.554 99.189 178.924C100.377 166.514 100.318 154.607 107.892 146.508C109.497 144.789 111.149 143.121 112.851 141.501Z" fill="#FDE8D5"/>
<path d="M224.451 184.574C219.101 183.961 213.549 177.701 208.838 173.694C206.27 171.51 203.632 169.335 200.735 167.95C197.346 166.329 193.683 166.092 190.096 166.456C186.038 166.868 182.165 168.423 178.667 171.115C175.16 173.815 172.501 177.867 169.424 181.263C166.41 184.59 162.929 188.032 158.941 189.029C155.281 189.944 151.84 188.266 148.704 185.955C141.519 180.663 135.57 172.43 126.959 171.027C122.559 170.311 118.082 171.426 114.578 175.102C111.414 178.423 109.448 182.882 106.89 186.891C102.346 194.015 95.11 199.024 88.2581 194.279C85.0958 192.09 82.4857 188.763 79.6276 186.004C76.3461 182.834 72.849 180.259 68.8002 179.163C64.0945 177.889 58.8726 178.475 54.4897 181.089C50.1644 183.669 46.7907 187.731 43.139 191.577C39.5032 195.408 35.7239 198.006 31.0011 198.658C25.953 199.354 20.9259 198.476 15.932 197.555C10.804 196.609 9.19363 206.841 14.3407 207.791C23.3197 209.447 33.0082 210.93 41.4367 205.526C48.4175 201.05 53.405 190.811 61.4079 189.208C65.2942 188.429 69.0232 189.531 72.3719 192.138C75.3687 194.471 77.9011 197.718 80.7343 200.356C83.9629 203.362 87.5278 205.95 91.5516 206.524C95.9121 207.146 100.117 205.853 103.981 203.252C107.625 200.799 110.851 197.236 113.398 193.07C115.579 189.501 117.409 184.687 120.572 182.381C123.833 180.004 127.863 181.565 131.003 183.496C134.573 185.691 137.61 188.898 140.852 191.771C148.102 198.195 156.244 202.277 164.843 197.486C168.986 195.179 172.501 191.641 175.833 187.771C178.583 184.578 181.085 180.877 184.51 178.862C187.973 176.824 192.181 176.211 195.934 176.985C198.521 177.518 201.501 179.927 204.091 182.07C209.742 186.743 215.882 194.012 222.859 194.81C225.027 195.059 227.151 193.7 227.612 190.722C228.003 188.195 226.635 184.825 224.451 184.574Z" fill="#F6B88C"/>
<path d="M214.467 122.961C209.117 122.348 203.564 116.088 198.854 112.081C196.286 109.896 193.647 107.722 190.751 106.337C187.362 104.716 183.698 104.479 180.112 104.843C176.054 105.255 172.181 106.809 168.683 109.502C165.176 112.201 162.517 116.253 159.44 119.649C156.426 122.976 152.944 126.419 148.957 127.416C145.297 128.33 141.856 126.653 138.72 124.342C131.535 119.05 125.585 110.816 116.975 109.414C112.575 108.698 108.097 109.813 104.594 113.49C101.43 116.811 99.4629 121.27 96.906 125.278C92.362 132.402 85.1258 137.411 78.2739 132.667C75.1116 130.478 72.5015 127.151 69.6435 124.391C66.362 121.222 62.8648 118.647 58.816 117.551C54.1104 116.277 48.8884 116.862 44.5056 119.477C40.1802 122.057 36.8065 126.119 33.1555 129.965C29.5197 133.795 25.7404 136.393 21.0176 137.044C15.9695 137.741 10.9424 136.863 5.9485 135.942C0.820493 134.996 -0.789916 145.228 4.35717 146.178C13.3361 147.834 23.0247 149.316 31.4531 143.913C38.434 139.437 43.4215 129.198 51.4243 127.594C55.3106 126.815 59.0397 127.917 62.3884 130.525C65.3852 132.858 67.9176 136.105 70.7508 138.743C73.9794 141.749 77.5443 144.337 81.5681 144.911C85.9286 145.533 90.1327 144.239 93.9978 141.638C97.6418 139.186 100.868 135.622 103.414 131.457C105.596 127.887 107.425 123.073 110.589 120.768C113.85 118.391 117.88 119.951 121.02 121.883C124.59 124.078 127.627 127.285 130.869 130.158C138.119 136.582 146.262 140.663 154.86 135.873C159.004 133.565 162.518 130.027 165.85 126.158C168.6 122.965 171.102 119.264 174.527 117.249C177.99 115.211 182.198 114.598 185.951 115.371C188.538 115.904 191.518 118.314 194.109 120.456C199.76 125.129 205.9 132.398 212.876 133.197C215.044 133.446 217.168 132.086 217.629 129.108C218.019 126.581 216.651 123.212 214.467 122.961Z" fill="#F6B88C"/>
</svg>
