<svg width="24" height="24" viewBox="0 0 24 24" fill="none" xmlns="http://www.w3.org/2000/svg">
<path d="M18.6245 0C18.7039 0.0621967 18.7535 0.130609 18.7783 0.216722C19.082 1.26958 19.2026 2.40005 19.4089 3.47282C19.7593 5.31727 20.1385 7.1581 20.5464 8.99535C21.6259 14.0069 22.7771 19.0084 24 24L8.5663 21.483C5.76835 20.9258 2.83522 20.5765 0 20.1325C0.714267 19.2365 1.60394 18.4075 2.4076 17.5584C3.53741 16.3448 4.65721 15.1255 5.76697 13.9006C8.32974 11.0766 10.9222 8.26924 13.5443 5.47852C15.2325 3.65257 16.8807 1.79328 18.6245 0Z" fill="#FC9A4B"/>
</svg>
