<svg width="24" height="24" viewBox="0 0 24 24" fill="none" xmlns="http://www.w3.org/2000/svg">
<path d="M9.54306 0.117601C10.3489 0.0312923 11.4064 -0.122502 12.1773 0.17376C14.4978 1.0649 22.9266 6.94601 23.7919 9.0787C24.2278 10.153 23.906 11.4957 23.4934 12.5293C22.6405 14.6666 17.9638 21.6059 16.266 23.0587C15.8047 23.4536 15.1272 23.7016 14.5677 23.936C13.7952 24.0157 13.1381 24.0694 12.3905 23.7902C9.68486 22.7801 1.34219 17.2821 0.23622 14.7289C-0.224248 13.6656 0.0582603 12.5774 0.488463 11.5539C1.3543 9.49292 6.12105 2.52097 7.68643 1.09805C8.19603 0.634794 8.9108 0.376333 9.54306 0.117601Z" fill="#FAD586"/>
</svg>
