<svg width="172" height="48" viewBox="0 0 172 48" fill="none" xmlns="http://www.w3.org/2000/svg">
<path d="M25.135 8H13.0684C10.4575 8 8.18711 9.53963 8.01152 11.5737C7.91101 12.7414 8.47831 13.8049 9.4397 14.5555C10.3276 15.2487 11.5571 15.6796 12.9182 15.6796H23.7529C26.5115 15.6796 27.5675 16.7995 27.5675 18.4815C27.5675 20.1635 26.5115 21.2875 23.7529 21.2875H12.8367C10.1655 21.2875 8 22.9782 8 25.0637C8 27.1493 10.1655 28.8399 12.8367 28.8399H25.135C34.9714 28.8399 40 24.1345 40 18.4815C40 12.3115 34.9714 8 25.135 8Z" fill="#F9C299"/>
<path d="M20.2744 35.0846V35.2078C20.2744 37.854 17.5265 39.9994 14.137 39.9994C10.7475 39.9994 8 37.854 8 35.2078V35.0846C8 32.4383 10.7475 30.293 14.137 30.293C17.5265 30.293 20.2744 32.4383 20.2744 35.0846Z" fill="#FAD586"/>
<path d="M50.0508 32.7812C49.7695 32.7422 49.5234 32.6367 49.3125 32.4648H49.3008V32.4531C49.1289 32.2422 49.0234 31.9961 48.9844 31.7148V31.7031L49.125 16.1875C49.0625 15 49.3125 14.3477 49.875 14.2305C50.3672 14.1289 50.9219 14.0781 51.5391 14.0781C52.1562 14.0781 52.7812 14.1094 53.4141 14.1719C54.0547 14.2344 54.6914 14.3516 55.3242 14.5234C55.9727 14.7031 56.625 15.082 57.2812 15.6602C57.9375 16.2305 58.3867 16.7422 58.6289 17.1953C58.7461 17.4297 58.8398 17.6953 58.9102 17.9922C58.9883 18.2812 59.043 18.6094 59.0742 18.9766C59.1289 19.6953 59.1211 20.3398 59.0508 20.9102C58.9805 21.4883 58.8398 22.0273 58.6289 22.5273C58.418 23.0273 57.8672 23.6836 56.9766 24.4961C56.0859 25.3008 55.1445 25.8867 54.1523 26.2539C53.207 26.6055 52.2031 26.7305 51.1406 26.6289V31.8906V31.9258L51.1289 31.9492L50.8945 32.418L50.8711 32.4531L50.8477 32.4766C50.6133 32.6484 50.3555 32.75 50.0742 32.7812H50.0625H50.0508ZM54.4688 23.7695C54.8984 23.5586 55.3047 23.2852 55.6875 22.9492C56.0703 22.6133 56.3828 22.2422 56.625 21.8359C56.8594 21.4297 56.9922 20.9727 57.0234 20.4648C57.0391 20.207 57.0352 19.9453 57.0117 19.6797C56.9961 19.4141 56.9609 19.1445 56.9062 18.8711C56.8047 18.3555 56.418 17.832 55.7461 17.3008C55.0586 16.7695 54.3789 16.4375 53.707 16.3047C53.0508 16.1719 52.2422 16.1602 51.2812 16.2695L51.1875 24.5078C52.3125 24.4688 53.0508 24.3867 53.4023 24.2617C53.5273 24.2148 53.6484 24.168 53.7656 24.1211C53.8906 24.0664 54.0117 24.0117 54.1289 23.957C54.2461 23.8945 54.3594 23.832 54.4688 23.7695ZM69.0811 32.6289L68.6123 32.3945L68.5772 32.3711L68.5538 32.3477C68.2413 31.9102 67.9248 31.4805 67.6045 31.0586C67.3155 30.6992 67.0928 30.3047 66.9366 29.875C66.6553 30.2344 66.2491 30.6602 65.7178 31.1523C65.0538 31.7695 64.378 32.0938 63.6905 32.125H63.6436L63.6202 32.1133L63.1514 31.8789L63.1163 31.8555L63.0928 31.832C62.8897 31.5586 62.8038 31.2305 62.835 30.8477V30.8242L62.8467 30.8008L63.0811 30.332L63.1163 30.2734L63.1631 30.2617C63.7334 30.082 64.1983 29.7852 64.5577 29.3711C64.6827 29.2305 64.7959 29.0938 64.8975 28.9609C64.9991 28.8203 65.0889 28.6836 65.167 28.5508C65.2452 28.418 65.3155 28.2852 65.378 28.1523C65.5577 27.7695 65.71 27.3672 65.835 26.9453C65.3975 25.4531 65.0381 23.9453 64.7569 22.4219C64.4756 20.8828 64.3584 19.5547 64.4053 18.4375C64.4288 17.8828 64.46 17.3945 64.4991 16.9727C64.5459 16.5508 64.6006 16.1914 64.6631 15.8945C64.7334 15.5977 64.8311 15.3242 64.9561 15.0742C65.0811 14.8164 65.2373 14.5859 65.4248 14.3828C65.6202 14.1719 65.8389 14.0312 66.0811 13.9609C66.3311 13.8906 66.5928 13.8945 66.8663 13.9727C67.4131 14.1367 67.835 14.4883 68.1319 15.0273C68.4288 15.5508 68.6475 16.2461 68.7881 17.1133C68.8116 17.2539 68.8311 17.3945 68.8467 17.5352C68.8702 17.6758 68.8897 17.8164 68.9053 17.957C68.9288 18.0898 68.9483 18.2227 68.9639 18.3555C68.9873 18.4805 69.0069 18.6094 69.0225 18.7422C69.0381 18.8672 69.0498 18.9922 69.0577 19.1172C69.0733 19.2422 69.0889 19.3672 69.1045 19.4922C69.1436 19.8594 69.1631 20.2539 69.1631 20.6758C69.1631 21.0977 69.1436 21.5469 69.1045 22.0234C69.0342 22.9766 68.9053 23.8633 68.7178 24.6836L68.167 27.0742C68.253 27.3242 68.3389 27.5703 68.4248 27.8125C68.5186 28.0547 68.6045 28.2969 68.6827 28.5391C68.7686 28.7734 68.9288 29.0742 69.1631 29.4414C69.3975 29.8086 69.7061 30.2383 70.0889 30.7305C70.3389 31.043 70.4288 31.4062 70.3584 31.8203V31.8438L70.3467 31.8555L70.1123 32.3242L70.1006 32.3594L70.0772 32.3711C69.8272 32.582 69.5108 32.6719 69.128 32.6406H69.1045L69.0811 32.6289ZM66.9366 22.5742C67.085 21.207 67.1319 20.2812 67.0772 19.7969C67.0147 19.2578 66.9639 18.7344 66.9248 18.2266C66.9092 17.9766 66.878 17.7578 66.8311 17.5703C66.792 17.375 66.7452 17.2109 66.6905 17.0781C66.6827 17.0625 66.6748 17.0469 66.667 17.0312C66.6592 17.0156 66.6514 17.0039 66.6436 16.9961C66.6436 16.9805 66.6397 16.9688 66.6319 16.9609C66.6163 17 66.6006 17.043 66.585 17.0898C66.5772 17.1289 66.5655 17.1758 66.5498 17.2305C66.542 17.2773 66.5303 17.332 66.5147 17.3945C66.5069 17.4492 66.4991 17.5117 66.4913 17.582C66.4834 17.6445 66.4756 17.7109 66.4678 17.7812C66.4444 17.9766 66.4288 18.1992 66.4209 18.4492C66.4209 18.6914 66.4288 18.9609 66.4444 19.2578C66.46 19.5469 66.4873 19.8555 66.5264 20.1836C66.5655 20.5117 66.6163 20.8594 66.6788 21.2266C66.7178 21.4531 66.7569 21.6797 66.7959 21.9062C66.8428 22.1328 66.8897 22.3555 66.9366 22.5742ZM83.8692 32.6875C83.588 32.6484 83.3419 32.543 83.1309 32.3711L83.1192 32.3594L83.1075 32.3359L82.8497 31.9258C82.3497 32.1602 81.8692 32.3359 81.4083 32.4531C80.9083 32.5781 80.3614 32.6328 79.7677 32.6172C79.1583 32.6016 78.5802 32.457 78.0333 32.1836C77.7598 32.043 77.4942 31.8867 77.2364 31.7148C76.9864 31.5352 76.7481 31.3359 76.5216 31.1172C76.045 30.6641 75.7325 30.1289 75.5841 29.5117C75.4434 28.9023 75.4044 28.2852 75.4669 27.6602C75.5294 27.0352 75.6661 26.4727 75.877 25.9727C76.088 25.4727 76.4122 25.0117 76.8497 24.5898C77.2872 24.168 77.8067 23.8672 78.4083 23.6875C79.002 23.5156 79.5997 23.4688 80.2013 23.5469C80.3575 23.5703 80.5098 23.5977 80.6583 23.6289C80.8145 23.6523 80.9591 23.6836 81.0919 23.7227C81.2325 23.7539 81.3614 23.7891 81.4786 23.8281C81.4395 23.3906 81.252 23.0547 80.9161 22.8203C80.5098 22.5312 80.0645 22.3086 79.5802 22.1523C79.1192 22.0039 78.6661 21.9922 78.2208 22.1172C78.1036 22.1484 77.9864 22.1758 77.8692 22.1992C77.752 22.2227 77.6388 22.2461 77.5294 22.2695C77.42 22.2852 77.3106 22.3008 77.2013 22.3164C77.0919 22.332 76.9864 22.3438 76.8848 22.3516H76.8497L76.8145 22.3398L76.252 22.0586L76.2169 22.0469L76.2052 22.0234C75.9942 21.7734 75.9044 21.457 75.9356 21.0742V21.0391L75.9473 21.0156L76.2286 20.5L76.252 20.4766L76.2872 20.4531C76.4356 20.3516 76.5919 20.2656 76.7559 20.1953C76.92 20.125 77.0919 20.0703 77.2716 20.0312C77.4513 19.9844 77.6348 19.9531 77.8223 19.9375C78.3848 19.8906 78.9395 19.9141 79.4864 20.0078C79.7677 20.0547 80.0802 20.1445 80.4239 20.2773C80.7677 20.4023 81.1427 20.5664 81.5489 20.7695C81.9708 20.9805 82.3302 21.2422 82.627 21.5547C82.9317 21.8672 83.1739 22.2305 83.3536 22.6445C83.7052 23.457 83.8888 24.7812 83.9044 26.6172C83.9122 27.5156 84.002 28.3906 84.1739 29.2422C84.3536 30.0938 84.6114 30.9258 84.9473 31.7383L84.9708 31.7969L84.9473 31.8555L84.713 32.3242L84.6895 32.3594L84.6661 32.3828C84.4317 32.5547 84.1739 32.6562 83.8927 32.6875H83.8809H83.8692ZM81.502 30.1562L82.088 29.6523C82.002 29.1133 81.9434 28.6289 81.9122 28.1992C81.8809 27.7617 81.8497 27.3164 81.8184 26.8633C81.1856 26.0898 80.5138 25.7148 79.8028 25.7383C79.0763 25.7617 78.5606 25.9219 78.2559 26.2188C78.1075 26.375 77.9825 26.5469 77.8809 26.7344C77.7794 26.9141 77.7091 27.1094 77.67 27.3203C77.5763 27.7656 77.5528 28.1992 77.5997 28.6211C77.6388 29.0273 77.795 29.3672 78.0684 29.6406C78.17 29.7344 78.2755 29.8242 78.3848 29.9102C78.4942 29.9883 78.6114 30.0625 78.7364 30.1328C78.8614 30.2031 78.9942 30.2656 79.1348 30.3203C79.5411 30.4922 79.9591 30.543 80.3888 30.4727C80.8184 30.4102 81.1895 30.3047 81.502 30.1562ZM89.8683 35.582L89.3995 35.3477L89.3644 35.3242L89.3409 35.2891C89.1691 35.0234 89.0675 34.7383 89.0363 34.4336V34.3867L89.0597 34.3516C89.6534 33.3828 90.212 32.3867 90.7355 31.3633C91.2511 30.3711 91.7394 29.3594 92.2003 28.3281C91.4113 27.4766 90.6652 26.6562 89.962 25.8672C89.2355 25.0469 88.5909 24.1797 88.0284 23.2656L88.005 23.2422V23.207L87.9581 22.6445V22.6094L87.9698 22.5742L88.2042 22.1055L88.2277 22.0703L88.2511 22.0469C88.5245 21.8438 88.8527 21.7578 89.2355 21.7891H89.2589L89.2823 21.8008L89.7511 22.0352L89.7863 22.0586L89.8097 22.0938C90.0441 22.4766 90.2902 22.8555 90.548 23.2305C90.8136 23.5977 91.0948 23.9531 91.3917 24.2969C91.9542 24.9609 92.6027 25.6445 93.337 26.3477C93.8136 25.5508 94.2784 24.75 94.7316 23.9453C95.2159 23.0859 95.7081 22.2344 96.2081 21.3906L96.2198 21.3672L96.2433 21.3438C96.5167 21.1406 96.8448 21.0547 97.2277 21.0859H97.2511L97.2745 21.0977L97.7433 21.332L97.7784 21.3438L97.7902 21.3672C98.0011 21.6172 98.0909 21.9336 98.0597 22.3164V22.3516L98.0363 22.375C96.755 24.4688 95.5597 26.6094 94.4503 28.7969C93.3331 31 92.1613 33.1484 90.9347 35.2422L90.923 35.2656L90.9113 35.2773C90.63 35.5195 90.298 35.625 89.9152 35.5938H89.8917L89.8683 35.582ZM121.624 32.8633L121.155 32.6289L121.109 32.6055L121.097 32.5703C120.831 32.1094 120.722 31.582 120.769 30.9883C120.128 31.2461 119.484 31.3672 118.835 31.3516C118.101 31.3359 117.46 31.1914 116.913 30.918C116.632 30.7773 116.363 30.5977 116.105 30.3789C115.847 30.1523 115.601 29.8828 115.366 29.5703C114.882 28.9609 114.499 28.2344 114.218 27.3906C113.929 26.5469 113.745 25.6836 113.667 24.8008C113.589 23.918 113.581 22.9961 113.644 22.0352C113.706 21.0664 113.929 20.0742 114.312 19.0586C114.695 18.0352 115.257 17.1094 115.999 16.2812C116.749 15.4453 117.441 14.9375 118.073 14.7578C118.691 14.5859 119.366 14.5391 120.101 14.6172C120.476 14.6562 120.812 14.7344 121.109 14.8516C121.413 14.9609 121.683 15.1133 121.917 15.3086C122.144 15.4961 122.312 15.7031 122.421 15.9297C122.538 16.1484 122.589 16.3789 122.573 16.6211V16.6445L122.562 16.668L122.327 17.1367L122.316 17.1719L122.292 17.1836C122.042 17.3945 121.726 17.4844 121.343 17.4531H121.296L121.273 17.418C121.054 17.2539 120.851 17.1172 120.663 17.0078C120.484 16.8984 120.316 16.8164 120.159 16.7617C120.089 16.7383 120.007 16.7227 119.913 16.7148C119.827 16.707 119.73 16.707 119.62 16.7148C119.511 16.7227 119.394 16.7383 119.269 16.7617C119.144 16.7773 119.007 16.8086 118.859 16.8555C118.296 17.0039 117.749 17.457 117.218 18.2148C117.077 18.4102 116.948 18.6016 116.831 18.7891C116.722 18.9688 116.62 19.1484 116.527 19.3281C116.441 19.5 116.363 19.6719 116.292 19.8438C116.222 20.0078 116.167 20.168 116.128 20.3242C116.034 20.6523 115.96 20.9883 115.905 21.332C115.851 21.6758 115.82 22.0312 115.812 22.3984C115.804 22.6484 115.8 22.8984 115.8 23.1484C115.8 23.3984 115.8 23.6484 115.8 23.8984C115.808 24.1484 115.82 24.3945 115.835 24.6367C115.874 25.3789 115.999 26.0547 116.21 26.6641C116.421 27.2734 116.796 27.8594 117.335 28.4219C117.851 28.9609 118.39 29.1953 118.952 29.125C119.53 29.0547 120.128 28.8633 120.745 28.5508L120.698 26.5938C120.519 26.5703 120.331 26.5586 120.136 26.5586C119.948 26.5508 119.753 26.5547 119.55 26.5703C119.058 26.6016 118.628 26.5 118.261 26.2656L118.238 26.2539L118.226 26.2422C118.015 25.9922 117.925 25.6758 117.956 25.293V25.2695L117.968 25.2461L118.202 24.7773L118.226 24.7305L118.273 24.707C118.577 24.5742 118.886 24.4883 119.198 24.4492C119.511 24.4102 119.831 24.4141 120.159 24.4609C120.777 24.5547 121.363 24.5938 121.917 24.5781C122.206 24.5703 122.488 24.5898 122.761 24.6367C123.034 24.6758 123.3 24.7461 123.558 24.8477L123.593 24.8594L123.616 24.8828C123.827 25.1328 123.917 25.4492 123.886 25.832V25.8555L123.874 25.8789L123.64 26.3477L123.616 26.3828L123.593 26.4062C123.476 26.4922 123.351 26.5625 123.218 26.6172C123.093 26.6641 122.956 26.6914 122.808 26.6992L122.902 32.0312V32.0664L122.89 32.0898L122.655 32.5586L122.644 32.5938L122.62 32.6055C122.37 32.8164 122.054 32.9062 121.671 32.875H121.648L121.624 32.8633ZM129.451 32.4883L128.983 32.2539L128.924 32.2188L128.901 32.1602C128.698 31.3008 128.53 30.4336 128.397 29.5586C128.264 28.6836 128.166 27.8008 128.104 26.9102C127.979 25.1289 127.838 23.3633 127.682 21.6133V21.6016V21.5898C127.721 21.3086 127.826 21.0625 127.998 20.8516L128.01 20.8398C128.26 20.6289 128.576 20.5391 128.959 20.5703H128.983L129.006 20.582L129.475 20.8164L129.533 20.8516L129.557 20.9102C129.651 21.2773 129.725 21.6484 129.78 22.0234C129.842 22.3984 129.885 22.7773 129.908 23.1602C129.948 23.7852 129.99 24.4102 130.037 25.0352C130.17 24.8398 130.311 24.6602 130.459 24.4961C130.608 24.3242 130.768 24.1602 130.94 24.0039C131.369 23.6055 131.83 23.3008 132.323 23.0898C132.815 22.8789 133.33 22.7656 133.869 22.75C134.377 22.7344 134.897 22.7109 135.428 22.6797H135.463L135.498 22.6914L135.967 22.9258L136.002 22.9375L136.014 22.9609C136.225 23.2109 136.315 23.5273 136.283 23.9102V23.9336L136.272 23.957L136.037 24.4258L136.002 24.4961L135.932 24.5078C135.635 24.5469 135.326 24.5859 135.006 24.625C134.694 24.6562 134.362 24.6914 134.01 24.7305C133.354 24.793 132.799 25.1094 132.346 25.6797C131.877 26.2578 131.522 26.8086 131.28 27.332C131.037 27.8555 130.869 28.3828 130.776 28.9141C130.682 29.4531 130.666 30.3633 130.729 31.6445V31.6914L130.717 31.7148L130.483 32.1836L130.471 32.2188L130.448 32.2305C130.323 32.3398 130.178 32.418 130.014 32.4648C129.858 32.5039 129.686 32.5156 129.498 32.5H129.475L129.451 32.4883ZM143.818 32.4531C143.669 32.4453 143.521 32.4297 143.372 32.4062C143.224 32.375 143.075 32.3398 142.927 32.3008C142.779 32.2617 142.634 32.2148 142.493 32.1602C142.267 32.082 142.04 31.9492 141.814 31.7617C141.587 31.5742 141.357 31.3398 141.122 31.0586C140.654 30.4883 140.322 29.8398 140.126 29.1133C139.939 28.3945 139.861 27.6406 139.892 26.8516C139.9 26.5859 139.919 26.3203 139.95 26.0547C139.982 25.7891 140.021 25.5234 140.068 25.2578C140.115 24.9922 140.169 24.7266 140.232 24.4609C140.435 23.6484 140.822 22.918 141.392 22.2695C141.579 22.0508 141.779 21.8516 141.99 21.6719C142.2 21.4922 142.419 21.3281 142.646 21.1797C142.88 21.0312 143.122 20.9023 143.372 20.793C144.13 20.457 144.943 20.3438 145.81 20.4531C145.982 20.4766 146.15 20.5156 146.314 20.5703C146.486 20.6172 146.654 20.6797 146.818 20.7578C146.982 20.8281 147.142 20.9141 147.298 21.0156C147.454 21.1094 147.607 21.2188 147.755 21.3438C147.904 21.4688 148.052 21.6094 148.2 21.7656C148.435 22.0156 148.638 22.2539 148.81 22.4805C148.982 22.6992 149.118 22.9141 149.22 23.125C149.322 23.3359 149.392 23.5391 149.431 23.7344C149.525 24.2656 149.603 24.8086 149.665 25.3633C149.728 25.918 149.728 26.5742 149.665 27.332C149.603 28.0977 149.45 28.7969 149.208 29.4297C148.966 30.0781 148.583 30.668 148.06 31.1992C147.919 31.3398 147.775 31.4688 147.626 31.5859C147.486 31.6953 147.337 31.7969 147.181 31.8906C147.025 31.9766 146.861 32.0547 146.689 32.125C146.517 32.1875 146.341 32.2422 146.161 32.2891C145.919 32.3438 145.669 32.3867 145.411 32.418C145.161 32.4492 144.904 32.4688 144.638 32.4766C144.372 32.4844 144.099 32.4766 143.818 32.4531ZM146.22 29.957C146.72 29.6602 147.06 29.2656 147.24 28.7734C147.419 28.25 147.533 27.7227 147.579 27.1914C147.626 26.6523 147.626 26.0586 147.579 25.4102C147.533 24.7773 147.337 24.1797 146.993 23.6172C146.65 23.0781 146.294 22.7656 145.927 22.6797C145.857 22.6562 145.779 22.6406 145.693 22.6328C145.615 22.625 145.529 22.6211 145.435 22.6211C145.349 22.6211 145.259 22.625 145.165 22.6328C145.072 22.6406 144.97 22.6523 144.861 22.668C144.759 22.6836 144.658 22.7031 144.556 22.7266C144.033 22.8438 143.521 23.2031 143.021 23.8047C142.521 24.4062 142.22 25.0078 142.118 25.6094C142.009 26.2266 141.97 26.793 142.001 27.3086C142.017 27.5664 142.052 27.8359 142.107 28.1172C142.161 28.3984 142.232 28.6836 142.318 28.9727C142.497 29.5352 142.829 29.9141 143.314 30.1094C143.829 30.3125 144.349 30.3867 144.872 30.332C145.044 30.3164 145.212 30.293 145.376 30.2617C145.54 30.2227 145.689 30.1797 145.822 30.1328C145.962 30.0859 146.095 30.0273 146.22 29.957ZM158.899 32.1484C158.485 31.4531 158.16 30.7109 157.926 29.9219C157.723 29.2812 157.535 28.6328 157.364 27.9766C157.239 28.2656 157.121 28.5508 157.012 28.832C156.903 29.1133 156.793 29.4023 156.684 29.6992C156.434 30.4102 156.184 31.1094 155.934 31.7969V31.8086V31.8203C155.817 32.0391 155.692 32.1992 155.559 32.3008C155.465 32.3711 155.364 32.4141 155.254 32.4297C155.153 32.4453 155.047 32.4336 154.938 32.3945C154.836 32.3555 154.735 32.293 154.633 32.207C154.532 32.1211 154.434 32.0117 154.34 31.8789L154.328 31.8672L154.317 31.8555C153.66 30.4883 153.149 29.0977 152.782 27.6836C152.422 26.2695 152.118 24.8281 151.868 23.3594V23.3359V23.3242C151.907 23.043 152.012 22.7969 152.184 22.5859L152.196 22.5742L152.207 22.5625C152.481 22.3594 152.809 22.2734 153.192 22.3047H153.215L153.239 22.3164L153.707 22.5508L153.778 22.5859L153.789 22.6562C153.977 23.5859 154.188 24.5273 154.422 25.4805C154.618 26.2852 154.821 27.082 155.032 27.8711C155.266 27.207 155.52 26.5508 155.793 25.9023C156.121 25.1211 156.473 24.3555 156.848 23.6055C156.926 23.4414 157.016 23.3125 157.118 23.2188C157.477 22.8906 157.91 23.0078 158.418 23.5703L158.442 23.5938L158.453 23.6289C158.641 24.4102 158.836 25.1992 159.039 25.9961C159.118 26.3086 159.196 26.625 159.274 26.9453C159.352 27.2578 159.43 27.5703 159.508 27.8828C159.805 26.9688 160.121 26.125 160.457 25.3516C160.848 24.4609 161.215 23.4844 161.559 22.4219L161.571 22.3867L161.594 22.3633C161.844 22.1523 162.16 22.0625 162.543 22.0938H162.567L162.59 22.1055L163.059 22.3398L163.082 22.3516L163.106 22.375C163.356 22.6562 163.446 23.0078 163.375 23.4297V23.4414L163.364 23.4531C163.114 24.2188 162.864 24.9609 162.614 25.6797C162.371 26.3984 162.129 27.0977 161.887 27.7773C161.403 29.1289 160.926 30.5742 160.457 32.1133V32.1367L160.446 32.1484C160.328 32.3594 160.203 32.5117 160.071 32.6055C159.696 32.8789 159.305 32.7305 158.899 32.1602V32.1484Z" fill="#212529"/>
</svg>
